PathFileType	4	(X/Y/Z)	Kaydara	
DataRate	CameraRate	NumFrames	NumMarkers	Units	OrigDataRate	OrigDataStartFrame	OrigNumFrames	
240.00	240.00	4	72	mm	240.00	134	355	
Frame#	Time	Hips			RightUpLeg			RightLeg			RightFoot			RightFoot_End			LeftUpLeg			LeftLeg			LeftFoot			LeftFoot_End			Spine			Spine1			Spine2			Spine3			Neck			Head			Head_End			RightShoulder			RightArm			RightForeArm			RightHand			RightHandThumb1			RightHandThumb2			RightHandThumb3			RightHandThumb3_End			RightInHandIndex			RightHandIndex1			RightHandIndex2			RightHandIndex3			RightHandIndex3_End			RightInHandMiddle			RightHandMiddle1			RightHandMiddle2			RightHandMiddle3			RightHandMiddle3_End			RightInHandRing			RightHandRing1			RightHandRing2			RightHandRing3			RightHandRing3_End			RightInHandPinky			RightHandPinky1			RightHandPinky2			RightHandPinky3			RightHandPinky3_End			LeftShoulder			LeftArm			LeftForeArm			LeftHand			LeftHandThumb1			LeftHandThumb2			LeftHandThumb3			LeftHandThumb3_End			LeftInHandIndex			LeftHandIndex1			LeftHandIndex2			LeftHandIndex3			LeftHandIndex3_End			LeftInHandMiddle			LeftHandMiddle1			LeftHandMiddle2			LeftHandMiddle3			LeftHandMiddle3_End			LeftInHandRing			LeftHandRing1			LeftHandRing2			LeftHandRing3			LeftHandRing3_End			LeftInHandPinky			LeftHandPinky1			LeftHandPinky2			LeftHandPinky3			LeftHandPinky3_End			
		X1	Y1	Z1	X2	Y2	Z2	X3	Y3	Z3	X4	Y4	Z4	X5	Y5	Z5	X6	Y6	Z6	X7	Y7	Z7	X8	Y8	Z8	X9	Y9	Z9	X10	Y10	Z10	X11	Y11	Z11	X12	Y12	Z12	X13	Y13	Z13	X14	Y14	Z14	X15	Y15	Z15	X16	Y16	Z16	X17	Y17	Z17	X18	Y18	Z18	X19	Y19	Z19	X20	Y20	Z20	X21	Y21	Z21	X22	Y22	Z22	X23	Y23	Z23	X24	Y24	Z24	X25	Y25	Z25	X26	Y26	Z26	X27	Y27	Z27	X28	Y28	Z28	X29	Y29	Z29	X30	Y30	Z30	X31	Y31	Z31	X32	Y32	Z32	X33	Y33	Z33	X34	Y34	Z34	X35	Y35	Z35	X36	Y36	Z36	X37	Y37	Z37	X38	Y38	Z38	X39	Y39	Z39	X40	Y40	Z40	X41	Y41	Z41	X42	Y42	Z42	X43	Y43	Z43	X44	Y44	Z44	X45	Y45	Z45	X46	Y46	Z46	X47	Y47	Z47	X48	Y48	Z48	X49	Y49	Z49	X50	Y50	Z50	X51	Y51	Z51	X52	Y52	Z52	X53	Y53	Z53	X54	Y54	Z54	X55	Y55	Z55	X56	Y56	Z56	X57	Y57	Z57	X58	Y58	Z58	X59	Y59	Z59	X60	Y60	Z60	X61	Y61	Z61	X62	Y62	Z62	X63	Y63	Z63	X64	Y64	Z64	X65	Y65	Z65	X66	Y66	Z66	X67	Y67	Z67	X68	Y68	Z68	X69	Y69	Z69	X70	Y70	Z70	X71	Y71	Z71	X72	Y72	Z72	

134	0.554	5921.0129	906.651	56.2195	5990.216839684536	890.8454274480187	8.464860408329947	5923.29607646024	486.35883975507954	-75.32767679274963	5914.645411716326	108.0472461192692	-157.91842668862654	5840.105086044403	32.439859106174914	1.0107594235032682	5859.281868736378	893.5986263041964	115.53068298140576	5800.948611562398	491.4576175663007	216.70533758854762	5759.714162751723	62.70864291458834	306.22806231071974	5629.185642775228	-13.324692210771163	189.61574073731273	5885.42118172527	1035.5240999590728	5.713957796589841	5840.11415799174	1105.884501169348	-43.135982573434696	5788.285343799754	1173.895444268453	-96.39091275029102	5732.305541010864	1230.056741264029	-151.3601585368892	5671.821659743136	1290.1669148454548	-209.2581756189428	5615.501967191053	1344.7824454384115	-261.0244108349413	5496.424842665179	1438.8743953181154	-309.30839097854107	5711.223180308186	1272.992640340085	-206.5439157333161	5762.956573286378	1274.6907959944015	-290.10240799284736	5838.381857743001	1042.6234535890596	-244.09849123385558	5937.954932106333	856.8371661395621	-262.3107377833036	5962.352535518833	851.8744051853424	-260.4659056115094	5977.211438132863	842.4938885239635	-271.96913984370553	5986.623833066562	833.5064183525373	-279.9758865812866	5993.670373226544	823.9138730385663	-286.64724884686603	5962.325659880976	842.0994389187688	-258.87838406891774	5991.39120414277	812.7207672207152	-259.6966892769934	6005.808228260033	795.05141032432	-267.76321061329116	6010.088849204233	789.8691440266928	-276.83316801578127	6010.47347273461	789.4939291658518	-287.0755938192747	5958.493870078697	836.5770333525148	-259.195075610974	5984.772571806	804.9340991000547	-260.1623855442831	5999.8972785459255	785.0234051959844	-269.0130638619861	6004.770332895974	778.468933455761	-279.9789144427101	6005.049535468667	777.9114482510848	-291.1973044244422	5955.103665172394	833.3750773456976	-259.3219467360152	5975.8833125459905	802.0906557933772	-260.0766589176791	5988.403452531499	784.1430131033503	-267.83982803211705	5992.752003053553	777.5055864730973	-278.44323196295534	5992.847760725386	776.832087568241	-289.0036548336481	5949.892100196469	830.9302440985481	-260.0430789288587	5965.944380689089	800.5516189262388	-260.9251566941459	5974.845242596283	785.3908253706297	-267.21515091852655	5977.472987420406	780.1678002249371	-274.9848903982804	5977.244671767384	779.3515417113347	-284.3601790426147	5671.972670196815	1267.8059666115385	-172.2869229777037	5616.860363100367	1212.7167192914164	-106.72734043076886	5777.931025962714	1055.6846747310647	-184.22640670976637	5943.114545330363	922.1208322069123	-249.58781052633998	5953.643192198206	927.5928717533927	-271.74979062803186	5965.637205472119	916.247431654376	-294.3907591612075	5972.4560895681025	905.6604411203461	-310.59975153568416	5976.828618652758	894.5367019223638	-324.49045749821425	5948.602356152043	919.3254455595564	-275.88146029103876	5953.504167430919	901.369006875527	-315.4762917555474	5959.632893941369	884.2836423745887	-340.28203692032605	5965.803800378528	874.7238808932426	-350.7628587894467	5972.503806082445	867.5277597746835	-356.1050405112295	5944.389372603393	912.4267386932427	-275.5743816608574	5946.890869127338	891.1823640002902	-314.02867489542615	5953.01012834003	871.6810756811233	-340.9242965793767	5960.182347138448	859.73596842124	-353.4862842546689	5967.380774188412	851.6620102171895	-359.2913721414458	5941.251164702675	908.0364919617115	-274.3857092322646	5940.661604559523	885.2607533559147	-307.9297274298597	5945.410674043099	867.419841307237	-331.13482849855683	5952.018449430924	855.4498847259406	-343.12587298081337	5958.63969869907	847.6460561762843	-348.52440504394906	5937.780878007943	903.2960715912342	-271.5639334008949	5934.979332734682	879.5635129051703	-300.7332511911625	5937.873172094181	864.0603248773717	-318.7983713240038	5942.253174932937	854.7407592438863	-327.2947607718203	5947.865452959911	847.489074110119	-331.9331462225597
135	0.558	5921.0129	906.651	56.2195	5990.1809715556	890.851121773389	8.537341356877462	5923.117841124712	486.4139291149664	-75.35723174626935	5914.639375685258	108.11266638826757	-157.94869178805243	5840.1163508965	32.52783698938927	0.999951553331746	5859.319279396101	893.5998599178904	115.47211336821009	5801.07129829467	491.4737434037768	216.75590666613482	5759.790658168826	62.734626442497884	306.28668618393687	5629.288551671554	-13.32479001453777	189.66729744713967	5885.415752934604	1035.4930983669637	5.650117791746991	5840.081162743447	1105.8399624560013	-43.17726591355985	5788.231518847097	1173.8503795441557	-96.3904231279389	5732.251796722386	1230.0441456321548	-151.29527991984511	5671.769644775515	1290.1890176771772	-209.12614217429493	5615.4571176301715	1344.8389684347676	-260.8334634629811	5496.407192656803	1438.951256054007	-309.1199484264737	5711.12377715428	1273.0337586036499	-206.35004511124257	5762.6409680616025	1274.85197682662	-289.30553073432435	5839.356830370797	1043.5017640112742	-244.05678526115764	5940.557919824505	861.3403078107307	-264.7789722391991	5965.1837858983445	857.3101126094385	-262.62680175651406	5980.442678156396	848.6404001135362	-274.22286973563314	5990.146692058847	840.1010383719538	-282.3845944113451	5997.447520068263	830.841943594432	-289.26242873053394	5965.215951229541	847.4755275570981	-261.3206925744027	5994.806903833445	819.1577320311222	-262.49588885232595	6009.636247747473	802.1041687075921	-270.8865846854626	6014.147421058211	797.1933965403495	-280.09842132967003	6014.7054788089	796.9677919601767	-290.4180380326743	5961.40363106465	841.7828273763438	-261.87424471784055	5988.2053181651245	811.0825623323423	-263.31775187541564	6003.780870771045	791.817757641542	-272.5523592954894	6008.932520989962	785.5783258713101	-283.7038692017424	6009.4017072507995	785.1784607429732	-295.01376276066117	5958.013489781633	838.4346344540655	-262.15924223664024	5979.261060476822	807.8714476225737	-263.4776704816001	5992.174281787005	790.4586258938489	-271.6055819934285	5996.791624986303	784.1101368558247	-282.4040581140508	5997.066046010218	783.5777590868356	-293.05809422736434	5952.78901452689	835.7814760592223	-263.05313745988565	5969.2617286743425	805.9401264783249	-264.5585118019864	5978.475508043017	791.160544789698	-271.1850929736274	5981.298417647484	786.1255108832147	-279.1186522660547	5981.227854356639	785.4211634545329	-288.58925966212684	5671.966813489759	1267.7827462607606	-172.26596445358655	5617.101116741471	1212.649987872705	-107.2446407107333	5778.539111035314	1056.5802752071859	-185.44394194026316	5943.466780233948	925.5848137125422	-252.1805797162785	5954.424099144942	931.5260781492789	-274.20454116637944	5966.301211584106	920.3174594579592	-296.6620011186663	5972.948784505924	909.8300386919327	-312.7538323932288	5977.1015906163175	898.7929741834182	-326.5559635738128	5949.131789913643	923.361260723228	-278.3676300899157	5953.834657292271	906.1032604330618	-317.8131687945739	5959.656845096815	889.2679019979041	-342.48317832090834	5965.63357977152	879.6763185680275	-352.86505699087604	5972.170443468981	872.3275520011211	-358.11552474879693	5944.673223811259	916.4386857677227	-278.0931577758995	5946.847888706524	895.8627039397766	-316.41948112050716	5952.600684473609	876.6285123501017	-343.1717350236098	5959.523301367699	864.6422725720631	-355.6166292282503	5966.535763677551	856.399960234013	-361.3224726879008	5941.367668106435	912.0163169048011	-276.93169450096815	5940.343090010932	889.8192083101522	-310.3857081168216	5944.740576443875	872.2041811707853	-333.47089871179026	5951.09050572202	860.1908749798408	-345.3516786910794	5957.528804986996	852.2270098578632	-350.6581667060354	5937.701763343816	907.198443415156	-274.14274327345026	5934.384182560196	883.9576793007004	-303.2509159196941	5936.9481841151855	868.622037000103	-321.22828357513026	5941.116747104236	859.2644016318218	-329.64824486015567	5946.55351384187	851.8672378334064	-334.2073958300991
136	0.563	5921.0129	906.651	56.2195	5990.142855866064	890.8524146598655	8.601216672516658	5922.9276855999615	486.46589752539745	-75.39279396270962	5914.636815363399	108.17481922015314	-157.98561310080734	5840.131330868766	32.612517819549865	0.9826182221151374	5859.35942516435	893.6057588573597	115.42249270545378	5801.191304765401	491.49396241206136	216.80970726415083	5759.861448165889	62.76164428614272	306.33704081777836	5629.385919748914	-13.324965103386107	189.7108781280083	5885.408160467172	1035.4610268723775	5.585019090732095	5840.044658946061	1105.7935768865466	-43.219875627447706	5788.172458960361	1173.802492112776	-96.3910786021736	5732.1905950772025	1230.027584880935	-151.23088191016677	5671.707920937092	1290.205902093334	-208.99399792071898	5615.400624554711	1344.8891979443927	-260.64185830050417	5496.37785735768	1439.0222132795666	-308.93036874398956	5711.014923285778	1273.066823475608	-206.1603245096773	5762.304034109713	1274.9848282659216	-288.5267429571917	5840.262174690229	1044.343216935962	-244.06407777464887	5943.021212697991	865.8411704841991	-267.3290008577535	5967.863139565483	862.7492282028685	-264.87950978551777	5983.501509237204	854.7940801229936	-276.5703101006477	5993.482650401119	846.7056305588958	-284.88784084944507	6001.025508077891	837.7824820343471	-291.9724149631672	5967.953038996172	852.8565776516784	-263.8547989675467	5998.045584464795	825.6098168300763	-265.396713337184	6013.267712359241	809.1771510689495	-274.1139466245933	6017.997683066099	804.5390283445474	-283.4663147454854	6018.719708811996	804.4626292051684	-293.8601067762489	5964.160313597038	846.9936393290726	-264.6433132246454	5991.4618256940585	817.2459829262785	-266.57157697231935	6007.46699676657	798.6326089636848	-276.1924039825992	6012.883104132423	792.7095975871739	-287.5278089929278	6013.531937327887	792.4669030390675	-298.92583936300616	5960.770956063805	843.4990133467751	-265.0848892575697	5982.466389069145	813.6658665259001	-266.9734900312523	5995.754318106155	796.792651270586	-275.46783202753403	6000.626884191791	790.7344077187819	-286.4595148693211	6001.07028170051	790.3427172448843	-297.2039210233762	5955.5349014887715	840.6368267722572	-266.1491308282221	5972.410542791402	811.3404766094067	-268.2823850909124	5981.92281416845	796.9458308651825	-275.24639548818584	5984.93112973894	792.0996899456827	-283.3421674593288	5985.009817845412	791.506839227237	-292.90507882298965	5671.952637641159	1267.7581868986465	-172.24089401627853	5617.335658871147	1212.592282031781	-107.73551005568706	5779.103242494896	1057.4561344857068	-186.65913223607348	5943.714061480856	929.011046558158	-254.8082247095627	5955.083275773521	935.4238348831923	-276.695949374934	5966.832472472805	924.3559477404522	-298.9716666121328	5973.302287911297	913.9705061114804	-314.9458333636711	5977.231044540765	903.0218565565414	-328.65748739429597	5949.541886152835	927.3604769724946	-280.883819734487	5954.030349447221	910.8025302788559	-320.16876410799307	5959.537682833887	894.2195615740717	-344.69831588989	5965.316619080912	884.5984597056339	-354.982329433593	5971.688379930873	877.0995084864642	-360.14468298675854	5944.841722084293	920.4131844950784	-280.6377825200538	5946.676630521747	900.5067111354101	-318.822855651736	5952.054467704765	881.5421015800366	-345.42607921381085	5958.72338508655	869.5174528400029	-357.7549359813854	5965.547872204235	861.1094519264949	-363.36535488209006	5941.372008329639	915.9580376396473	-279.5008243411192	5939.903539828765	894.3399470459539	-312.85045114738784	5943.94265115879	876.9528511148156	-335.8102961277697	5950.03110705246	864.898758727666	-347.581564903962	5956.284720085031	856.7773331573659	-352.79947478509104	5937.514766355313	911.0620227000956	-276.7422669133824	5933.675579741745	888.3129364662996	-305.7744482486685	5935.905298826012	873.1462898482114	-323.65899473863664	5939.860257128417	863.7523632552818	-332.0027307602107	5945.120251328581	856.2118617169403	-336.48551803544245
137	0.567	5921.0129	906.651	56.2195	5990.10242198238	890.8492439049453	8.656335173549742	5922.725602349905	486.514633148799	-75.43428537309025	5914.638155544735	108.23365752499316	-158.02923848723168	5840.150449592202	32.69382390127456	0.9586960933019952	5859.402377843779	893.6163795075663	115.38195808255463	5801.30863725752	491.5183019060566	216.8667201685289	5759.926506415426	62.78967286753834	306.37885040672853	5629.477727649123	-13.325254088470519	189.7462045511868	5885.3984001583685	1035.4279132898926	5.5187292573941304	5840.004650950526	1105.7454017307189	-43.2637204264367	5788.108177151199	1173.7518681013357	-96.39277456338958	5732.121945150741	1230.0071518737195	-151.16686973962138	5671.636492583616	1290.2176665110462	-208.86165929714667	5615.332486077764	1344.9332357594546	-260.44952119169017	5496.3368044846875	1439.0873478463172	-308.7395585397636	5710.8966680910635	1273.0919191633518	-205.9747489143405	5761.945926062039	1275.0893084260938	-287.76665557347485	5841.096406950601	1045.1473039518596	-244.12113256253932	5945.34080396035	870.3367050659588	-269.9600764594351	5970.386572364027	868.1881029581883	-267.2237400918668	5986.383498791869	860.9505714520997	-279.0112735073234	5996.626929110227	853.3153677101225	-287.4854235231457	6004.3992164791725	844.7302889374777	-294.7769190638996	5970.532692788954	858.2389760437574	-266.4801608615029	6001.10236818134	832.072595394053	-268.3985539217782	6016.697200141948	816.2653205311883	-277.44456731774005	6021.633924394	811.9006426506766	-286.9360789824482	6022.510246115177	811.9727595232964	-297.4010208776711	5966.7595368227785	852.2059448113916	-267.50150336857496	5994.537000665287	823.420091466429	-269.9228909913538	6010.949951216454	805.4630376952539	-279.9320658706823	6016.616019908454	799.857399775132	-291.44953845819725	6017.43393393966	799.7711182537977	-302.9323208338984	5963.371593802974	848.5647735250907	-268.0979456141041	5985.494112872084	819.4698784521732	-270.5628610244424	5999.137825829411	803.1405026296775	-279.4251488927561	6004.2516914551525	797.3734086135937	-290.60809529284757	6004.854158624182	797.1216859130934	-301.4396034428825	5958.12520335337	845.492972497017	-269.3299278804048	5975.385556536926	816.7488743841188	-272.09524115186525	5985.181430249175	802.7424733985756	-279.3973372728721	5988.3651236544065	798.0858458057991	-287.65363514617604	5988.584360767508	797.603831928635	-297.30580046586897	5671.930105126972	1267.7323996566847	-172.21153727103905	5617.563736483531	1212.5436959472866	-108.1993045865704	5779.622682391725	1058.3114185366794	-187.8710894637831	5943.854734167487	932.3964563915038	-257.4690159095997	5955.618610266741	939.2830721084031	-279.2225463401911	5967.229040136398	928.3599333940613	-301.3183084253491	5973.514849643853	918.0789067640497	-317.1742715638313	5977.215466906192	907.2203935868523	-330.79347290427984	5949.830749573238	931.3198257983375	-283.4284132307705	5954.089473389247	915.4631931958058	-322.5413992367771	5959.273947235089	899.1348983733508	-346.92566881572174	5964.851696367966	889.4866670728038	-357.11284556179805	5971.056620781154	881.8401621641084	-362.19065286409216	5944.893206286819	924.3468555975954	-283.20650116970097	5946.375681747383	905.1106003810902	-321.23690781697036	5951.370434894012	886.4179362955217	-347.68530861487216	5957.781857034638	874.3576989253224	-359.8991152423226	5964.416614341353	865.786858090066	-365.41789041149434	5941.262684787306	919.8582038028374	-282.0912478642727	5939.3418103609665	898.8190882009476	-315.3219010598311	5943.0161078348565	881.6618506412076	-338.15083372938864	5948.839770760618	869.5696219612068	-349.81326854685113	5954.907209700618	861.2932809725846	-354.94602487837676	5937.218581273003	914.8833022329984	-279.36054240933163	5932.852660327574	892.6253404112681	-308.3016310187044	5934.743982126881	877.6290257774372	-326.08815454733997	5938.48341804509	868.20064072599	-334.35579929965536	5943.5656115430065	860.519086913894	-338.7650493253523
